# xmcd
#
# Track frame offsets:
#	150
#	30454
#	57618
#	83503
#	108821
#	132244
#	159015
#	188552
#	213941
#	242969
#
# Disc length: 3489 seconds
#
# Revision: 3818495506
# Processed by: cddbd v1.5.2PL0 Copyright (c) Steve Scherf et al.
# Submitted via: EZCDAudioConverter 8.0.2.1
#
DISCID=750d9f0a
DTITLE=Various Artist - Sao Chưa Thấy Hồi Âm
DYEAR=1990
DGENRE=World Pop
TTITLE0=Hương Lan - Ngày xưa anh nói
TTITLE1=Giao Linh - Sao Chưa Thấy Hồi Âm
TTITLE2=Lưu Hồng - Trăng tàn trên hè phố
TTITLE3=Anh Thoại - Người nhập cuộc
TTITLE4=Giao Linh - Nửa đêm nguyện cầu
TTITLE5=Hương Lan - Người yêu cô đơn
TTITLE6=Lưu Hồng - Loài hoa không vỡ
TTITLE7=Anh Thoại - Nhận diện thời gian
TTITLE8=Giao Linh - Vọng gác đêm sương
TTITLE9=Anh Thoại - Xin đừng yêu tôi
EXTD=
EXTT0=
EXTT1=
EXTT2=
EXTT3=
EXTT4=
EXTT5=
EXTT6=
EXTT7=
EXTT8=
EXTT9=
PLAYORDER=
